.
..............................Site Info...........................

 -   http://www.scenetime.com  *_*    

Scenetime .Always on time . friendly online private torrent community ..

     We care to share . Join us on  http://www.scenetime.com 

    Be the first to get new release at  http://www.scenetime.com

        Seed back for speed


...................................NFO:.................................................General Info:
Code:
Complete name      : Prometheus.2012.DvDRip.XViD.[Hindi.Tamil.Telugu]-h003.avi
Format             : AVI
File size          : 1.39 GiB
Duration           : 1h 58mn
Overall bit rate   : 1 676 Kbps
Source             : DVD9{Thanks}


Video:
Code:
Format             : MPEG-4 Visual
Codec ID           : XVID
Duration           : 1h 58mn
Bit rate           : 1 286 Kbps
Width              : 700 pixels
Height             : 288 pixels
Aspect ratio       : 2.40:1
Frame rate         : 25.000 fps
Bit depth          : 8 bits
Scan type          : Progressive
Compression mode   : Lossy
Stream size        : 1.07 GiB (77%)


Audio: 
Code:
#1

Language           : Hindi
Format             : MPEG Audio
Codec ID           : MP3
Duration           : 1h 58mn
Nominal bit rate   : 128 Kbps
Channel(s)         : 2 channels
Sampling rate      : 48.0 KHz
Compression mode   : Lossy
Stream size        : 102 MiB (7%)
Code:
#2

Language           : Tamil
Format             : MPEG Audio
Codec ID           : MP3
Duration           : 1h 58mn
Nominal bit rate   : 128 Kbps
Channel(s)         : 2 channels
Sampling rate      : 48.0 KHz
Compression mode   : Lossy
Stream size        : 102 MiB (7%)
Code:
#3

Language           : Telugu
Format             : MPEG Audio
Codec ID           : MP3
Duration           : 1h 58mn
Nominal bit rate   : 128 Kbps
Channel(s)         : 2 channels
Sampling rate      : 48.0 KHz
Compression mode   : Lossy
Stream size        : 102 MiB (7%)

iMDB Info:

 
http://www.imdb.com/title/tt1446714/

Code:
Ratings: 7.5/10 from 134,025 users 

A team of explorers discover a clue to the origins of mankind on Earth, leading them on a journey to the 
darkest corners of the universe. There, they must fight a terrifying battle to save the future of the 
human race. 

Director : Ridley Scott 
Writers  : Jon Spaihts, Damon Lindelof 
Stars    : Noomi Rapace, Logan Marshall-Green and Michael Fassbender

Screens: